<svg xmlns="http://www.w3.org/2000/svg" xmlns:xlink="http://www.w3.org/1999/xlink" contentStyleType="text/css" height="219px" preserveAspectRatio="none" style="width:390px;height:219px;background:#FFFFFF;" version="1.1" viewBox="0 0 390 219" width="390px" zoomAndPan="magnify"><defs/><g><!--cluster Formikujo--><g id="cluster_Formikujo"><rect fill="none" height="97.29" rx="2.5" ry="2.5" style="stroke:#181818;stroke-width:1.0;" width="262" x="7" y="7"/><rect fill="none" height="10" style="stroke:#181818;stroke-width:1.0;" width="15" x="249" y="12"/><rect fill="none" height="2" style="stroke:#181818;stroke-width:1.0;" width="4" x="247" y="14"/><rect fill="none" height="2" style="stroke:#181818;stroke-width:1.0;" width="4" x="247" y="18"/><text fill="#000000" font-family="sans-serif" font-size="14" font-weight="bold" lengthAdjust="spacing" textLength="79.167" x="98.4165" y="32.9951">Formikujo</text></g><!--entity Afido--><g id="elem_Afido"><rect fill="#F1F1F1" height="46.2969" rx="2.5" ry="2.5" style="stroke:#181818;stroke-width:0.5;" width="75.8477" x="177.08" y="42"/><rect fill="#F1F1F1" height="10" style="stroke:#181818;stroke-width:0.5;" width="15" x="232.9277" y="47"/><rect fill="#F1F1F1" height="2" style="stroke:#181818;stroke-width:0.5;" width="4" x="230.9277" y="49"/><rect fill="#F1F1F1" height="2" style="stroke:#181818;stroke-width:0.5;" width="4" x="230.9277" y="53"/><text fill="#000000" font-family="sans-serif" font-size="14" lengthAdjust="spacing" textLength="35.8477" x="192.08" y="74.9951">Afido</text></g><!--entity Formiko--><g id="elem_Formiko"><rect fill="#F1F1F1" height="46.2969" rx="2.5" ry="2.5" style="stroke:#181818;stroke-width:0.5;" width="96.5742" x="22.71" y="42"/><rect fill="#F1F1F1" height="10" style="stroke:#181818;stroke-width:0.5;" width="15" x="99.2842" y="47"/><rect fill="#F1F1F1" height="2" style="stroke:#181818;stroke-width:0.5;" width="4" x="97.2842" y="49"/><rect fill="#F1F1F1" height="2" style="stroke:#181818;stroke-width:0.5;" width="4" x="97.2842" y="53"/><text fill="#000000" font-family="sans-serif" font-size="14" lengthAdjust="spacing" textLength="56.5742" x="37.71" y="74.9951">Formiko</text></g><!--entity po?tfako--><g id="elem_po&#349;tfako"><rect fill="#F1F1F1" height="39.2969" rx="2.5" ry="2.5" style="stroke:#181818;stroke-width:0.5;" width="90.416" x="287.79" y="45.5"/><polygon fill="#F1F1F1" points="361.206,50.5,361.206,64.5,373.206,64.5,373.206,56.5,367.206,50.5,361.206,50.5" style="stroke:#181818;stroke-width:0.5;"/><line style="stroke:#181818;stroke-width:0.5;" x1="367.206" x2="367.206" y1="50.5" y2="56.5"/><line style="stroke:#181818;stroke-width:0.5;" x1="373.206" x2="367.206" y1="56.5" y2="56.5"/><text fill="#000000" font-family="sans-serif" font-size="14" lengthAdjust="spacing" textLength="60.416" x="297.79" y="71.4951">po&#349;tfako</text></g><!--entity po?tservo--><g id="elem_po&#349;tservo"><rect fill="#F1F1F1" height="46.2969" rx="2.5" ry="2.5" style="stroke:#181818;stroke-width:0.5;" width="108.749" x="207.63" y="167.29"/><rect fill="#F1F1F1" height="10" style="stroke:#181818;stroke-width:0.5;" width="15" x="296.379" y="172.29"/><rect fill="#F1F1F1" height="2" style="stroke:#181818;stroke-width:0.5;" width="4" x="294.379" y="174.29"/><rect fill="#F1F1F1" height="2" style="stroke:#181818;stroke-width:0.5;" width="4" x="294.379" y="178.29"/><text fill="#000000" font-family="sans-serif" font-size="14" lengthAdjust="spacing" textLength="68.749" x="222.63" y="200.2851">po&#349;tservo</text></g><!--entity github--><g id="elem_github"><rect fill="#F1F1F1" height="46.2969" rx="2.5" ry="2.5" style="stroke:#181818;stroke-width:0.5;" width="84.8984" x="82.55" y="167.29"/><rect fill="#F1F1F1" height="10" style="stroke:#181818;stroke-width:0.5;" width="15" x="147.4484" y="172.29"/><rect fill="#F1F1F1" height="2" style="stroke:#181818;stroke-width:0.5;" width="4" x="145.4484" y="174.29"/><rect fill="#F1F1F1" height="2" style="stroke:#181818;stroke-width:0.5;" width="4" x="145.4484" y="178.29"/><text fill="#000000" font-family="sans-serif" font-size="14" lengthAdjust="spacing" textLength="44.8984" x="97.55" y="200.2851">github</text></g><!--link po?tfako to po?tservo--><g id="link_po&#349;tfako_po&#349;tservo"><path d="M322.06,85.14 C309.38,107.16 291.4935,138.2201 277.9935,161.6701 " fill="none" id="po&#349;tfako-to-po&#349;tservo" style="stroke:#181818;stroke-width:1.0;"/><polygon fill="#181818" points="275,166.87,282.9569,161.0659,277.4946,162.5368,276.0237,157.0745,275,166.87" style="stroke:#181818;stroke-width:1.0;"/><text fill="#000000" font-family="sans-serif" font-size="13" lengthAdjust="spacing" textLength="60.9121" x="302" y="133.3569">fetchmail</text></g><!--link Formiko to Afido--><g id="link_Formiko_Afido"><path d="M119.75,65.14 C138.35,65.14 153.28,65.14 170.77,65.14 " fill="none" id="Formiko-to-Afido" style="stroke:#181818;stroke-width:1.0;"/><polygon fill="#181818" points="176.77,65.14,167.77,61.14,171.77,65.14,167.77,69.14,176.77,65.14" style="stroke:#181818;stroke-width:1.0;"/><text fill="#000000" font-family="sans-serif" font-size="13" lengthAdjust="spacing" textLength="21.7852" x="137.68" y="58.2069">ssh</text></g><!--link Afido to po?tfako--><g id="link_Afido_po&#349;tfako"><path d="M253.26,65.14 C264.68,65.14 270.1,65.14 281.52,65.14 " fill="none" id="Afido-to-po&#349;tfako" style="stroke:#181818;stroke-width:1.0;"/><polygon fill="#181818" points="287.52,65.14,278.52,61.14,282.52,65.14,278.52,69.14,287.52,65.14" style="stroke:#181818;stroke-width:1.0;"/></g><!--link Afido to po?tservo--><g id="link_Afido_po&#349;tservo"><path d="M223.62,88.76 C232.1,111.01 242.8334,139.1633 251.2934,161.3633 " fill="none" id="Afido-to-po&#349;tservo" style="stroke:#181818;stroke-width:1.0;"/><polygon fill="#181818" points="253.43,166.97,253.9629,157.1356,251.6495,162.2978,246.4873,159.9844,253.43,166.97" style="stroke:#181818;stroke-width:1.0;"/><text fill="#000000" font-family="sans-serif" font-size="13" lengthAdjust="spacing" textLength="32.7856" x="243" y="133.3569">smtp</text></g><!--link Afido to github--><g id="link_Afido_github"><path d="M198.49,88.76 C182.25,111.01 161.1482,139.9243 144.9382,162.1243 " fill="none" id="Afido-to-github" style="stroke:#181818;stroke-width:1.0;"/><polygon fill="#181818" points="141.4,166.97,149.9378,162.0603,144.3485,162.9319,143.4769,157.3426,141.4,166.97" style="stroke:#181818;stroke-width:1.0;"/><text fill="#000000" font-family="sans-serif" font-size="13" lengthAdjust="spacing" textLength="21.7852" x="177" y="133.3569">ssh</text></g><!--link Formiko to github--><g id="link_Formiko_github"><path d="M72.33,88.77 C73.85,103.18 77.09,121.95 84,137.29 C88.78,147.9 92.3315,153.6385 99.5315,162.2885 " fill="none" id="Formiko-to-github" style="stroke:#181818;stroke-width:1.0;"/><polygon fill="#181818" points="103.37,166.9,100.6866,157.4237,100.1713,163.0571,94.5379,162.5417,103.37,166.9" style="stroke:#181818;stroke-width:1.0;"/><text fill="#000000" font-family="sans-serif" font-size="13" lengthAdjust="spacing" textLength="33.4585" x="85" y="133.3569">https</text></g><!--SRC=[LOyn4i8W44LxJl4xgrp0mXaRBv6n80G29cGPsDWu7iNZU2-3qO5qEt__t__sC6d3O49qWsNqBch5ZcO16TaPgHY1tYysSYG1HJxGh6T6-rMJZdUwYc91qvnGLZZ2Q5RMIpVLwS6nNJeXYdAXwDsut0WFWPKdPAQEcCdNK6ZFnlMv4kqMsSzOwt-MjJibMoBuasslr7BzJ8vv3hKXEpRYwkYkiMmjSqZY-G40]--></g></svg>